<svg width="60" height="60" viewBox="0 0 60 60" fill="none" xmlns="http://www.w3.org/2000/svg">
<path d="M37.875 21C35.9589 20.9934 34.0603 21.3647 32.2878 22.0927C30.5153 22.8206 28.9038 23.8909 27.5454 25.2424C26.187 26.5938 25.1085 28.1998 24.3714 29.9685C23.6343 31.7372 23.2533 33.6339 23.25 35.55V50.25C23.25 50.8467 23.4871 51.419 23.909 51.841C24.331 52.2629 24.9033 52.5 25.5 52.5H30.75C31.3467 52.5 31.919 52.2629 32.341 51.841C32.7629 51.419 33 50.8467 33 50.25V35.55C32.9995 34.8685 33.1426 34.1945 33.4201 33.5721C33.6975 32.9496 34.103 32.3926 34.6102 31.9373C35.1173 31.4821 35.7147 31.1388 36.3634 30.93C37.0121 30.7211 37.6975 30.6512 38.375 30.725C39.59 30.878 40.7066 31.4717 41.513 32.3933C42.3195 33.3149 42.7596 34.5004 42.75 35.725V50.25C42.75 50.8467 42.9871 51.419 43.409 51.841C43.831 52.2629 44.4033 52.5 45 52.5H50.25C50.8467 52.5 51.419 52.2629 51.841 51.841C52.2629 51.419 52.5 50.8467 52.5 50.25V35.55C52.4967 33.6339 52.1157 31.7372 51.3786 29.9685C50.6415 28.1998 49.563 26.5938 48.2046 25.2424C46.8462 23.8909 45.2347 22.8206 43.4622 22.0927C41.6897 21.3647 39.7911 20.9934 37.875 21Z" fill="white"/>
<path d="M16.5 23.25H9.75C8.50736 23.25 7.5 24.2574 7.5 25.5V50.25C7.5 51.4926 8.50736 52.5 9.75 52.5H16.5C17.7426 52.5 18.75 51.4926 18.75 50.25V25.5C18.75 24.2574 17.7426 23.25 16.5 23.25Z" fill="white"/>
<path d="M13.125 18.75C16.2316 18.75 18.75 16.2316 18.75 13.125C18.75 10.0184 16.2316 7.5 13.125 7.5C10.0184 7.5 7.5 10.0184 7.5 13.125C7.5 16.2316 10.0184 18.75 13.125 18.75Z" fill="white"/>
</svg>
