<svg width="800" height="773" viewBox="0 0 800 773" fill="none" xmlns="http://www.w3.org/2000/svg">
<path d="M357.975 225.7C366.725 210.2 321.9 204.825 352.1 220.225C354.9 221.15 354.275 226.775 357.975 225.7ZM113.55 94.025C94.5 69.15 149.35 98.2 130.025 72.15C113.725 59.175 98.075 86.775 113.55 94.025ZM153.45 125.275C180.5 121.675 146.575 113.625 148.025 124.95L153.45 125.275ZM132.075 120.15C121.9 124.15 137.875 112.275 132.075 120.15ZM175.2 167.625C192 168.025 167.975 145.075 187.975 155.45C184.7 144.725 164.675 142.725 154.85 138.45C149.35 148.25 166.1 167.75 175.15 167.625H175.2ZM122.9 165.475C137.275 154.625 172.5 171.9 149.9 154.7C147.725 152.775 100.35 167.75 122.9 165.475ZM108.15 193.675C133.325 185.125 167.725 175.525 179.6 197.9C167.5 183.35 174.725 169.025 186.15 190.3C202.275 211.825 210.35 180.525 199.825 173.275C211.8 188.15 225.4 195.15 207.85 174.2C226.9 151.275 169.65 177.225 156.625 176.95C150.375 179.75 91.9 191.85 108.15 193.675ZM155 272.025C146.575 270 161.15 264.425 155 272.025ZM140.325 311.3C135.95 316.1 138.825 302.25 140.325 311.3ZM127.9 305C141.95 304.075 149.95 289.475 125.175 290.325C86.75 286.35 159.05 303.45 120.25 298.575C115.025 302 127.625 305.975 127.9 305.05V305ZM727.9 686.125C745.3 686.125 780.625 680.725 742.75 680.725C736.825 681.675 708.125 681.475 727.9 686.125ZM644.5 637.15C636.075 638.3 646.375 624.4 644.5 637.15ZM709.875 681.825C700.375 686.825 710.25 670.725 709.875 681.825ZM66.25 279.125C51.525 275.5 78.725 269.6 66.25 279.125ZM113.725 312.875C97.15 309.575 121.375 304.75 113.725 312.875ZM97.65 308.375C74.5 296.825 119.425 295.025 97.65 308.375ZM258.7 207C265.975 187.875 287 199.35 262.075 203.15C262.6 205.175 261.325 213.025 258.7 207ZM238.7 207.125C273.65 220.625 236.975 169.2 238.7 207.125ZM168.4 217.95C179.95 204.075 233.85 209.1 194.4 216.6C183.85 208.625 175.725 221.275 168.4 217.95ZM163.525 221.2C165.525 228.375 170.45 213.075 163.525 221.2ZM144.55 228.85C145.55 216 176.35 235.65 149.65 233.475L144.55 228.85ZM130.65 228.6C136.45 233.15 141.575 220.475 130.65 228.6ZM129.175 242.175C136.775 214.25 169.8 265.125 141.6 245.85C138.575 243.475 134.725 242.05 130.525 242.05C130.05 242.05 129.575 242.075 129.1 242.1H129.15L129.175 242.175ZM51.25 281.85C48.35 265.125 48.75 235.8 76.625 245.725C39.425 253.1 102.375 291.95 94.425 261.275C110.05 262.025 125.05 252.025 116.8 267.2C147.625 263.775 168.975 237.075 198.775 240.8C225.825 238.55 250.825 233.325 274.6 225.425L272.325 226.075C292.875 224.575 312.625 202.45 301.375 189.375C295.925 189.05 289.55 188.85 283.125 188.85C258.3 188.85 234.125 191.7 210.925 197.075L213.075 196.65C178.775 203.775 147.6 217.325 112.95 223.175C79.2 227.7 119.725 235.675 110.075 237.425C92.45 243.55 131.075 247.675 107.8 254.1C93.425 251.35 78.425 246.425 84.6 231.3C52.275 235.45 23.825 248.9 49.4 281.775H51.275L51.25 281.85ZM105.5 318.15C92.7 320.5 107.225 306.275 105.5 318.15ZM673.525 685.3C663.1 686.85 677.65 673.05 673.525 685.3ZM611.85 653.325C598.725 650.4 622.15 643.85 611.85 653.325ZM101.55 338.15C117.725 331.8 72.175 325.025 98.3 336.9L101.55 338.15ZM63.45 315.375C57.525 316.625 62.35 305.375 63.45 315.375ZM56.575 320.575C52.075 323.75 55.95 312.15 56.575 320.575ZM103 350.7C76.75 347.95 100.825 332.425 103 350.7ZM192.975 417.175C183.925 414.575 196.775 413.675 192.975 417.175ZM111.575 365C108.65 368.8 107.825 361.975 111.575 365ZM98.65 358.675C77.925 351.675 98.925 350.875 98.65 358.675ZM76.025 352.975C59.625 349.3 71.725 328.775 76.025 352.975ZM170.9 418.85C161 418.375 171.175 406.125 170.9 418.85ZM599.625 685.9C615.625 682.65 652.05 694.025 657.925 681.65C638.55 681.175 590.75 667.975 588.5 684.775L592.75 685.5L599.625 685.9ZM159.45 415.975C155.65 417.525 159.225 411.825 159.45 415.975ZM123.325 398.475C111.85 395.675 135.8 394.25 123.325 398.475ZM411.675 593.125C399.325 596.25 411.45 580.6 411.675 593.125ZM131.025 416.25C110.275 410.95 150.4 408.75 131.025 416.25ZM506.225 657.425C497.8 656.8 512.975 652.425 506.225 657.425ZM435.875 613.075C430.975 614 434.625 608.225 435.875 613.075ZM427.325 606.85C413.95 606.65 423.95 598.175 427.325 606.85ZM249.85 494.9C227.2 489.775 249.85 482.25 249.85 494.9ZM229.35 490.15C228.95 489.15 221.05 483.175 229.35 490.15ZM94.275 406.875C97.15 394.9 67.625 341.05 80.35 379.875C84.9 388 84.4 403.425 94.275 406.875ZM167.875 464.975C184.025 468.6 232.425 504.775 203.875 467.475C189.25 463.175 198.025 427.4 183.1 433.725C193.1 450.45 191.35 457.55 170.3 447.025C143.9 434.125 155.5 453.4 160.625 458.7C153.625 460.325 169.975 464.825 167.9 464.95L167.875 464.975ZM572.275 725.3C557.625 722.7 584.325 717.25 572.275 725.3ZM529.15 696.625C510.175 703.275 547.075 681.575 529.15 696.625ZM537.575 700.7C559.6 684.775 524.2 697.65 532.95 703.7L537.575 700.7ZM290.975 554.35C283.975 555.825 286.45 545.075 290.975 554.35ZM276.6 546.025C267.5 546.65 275.975 538.525 276.6 546.025ZM509.975 693.175C527.2 682.075 506.05 683.8 506.85 694.175L509.975 693.175ZM156.8 470.45C143.675 469.475 161.9 462.9 156.8 470.45ZM515.625 700.45C504.375 697.25 533.425 685.2 515.625 700.45ZM488.575 689.825C474.025 679.825 524.025 666.9 488.575 689.825ZM112.75 454.45C96.325 431.025 102.525 420.45 86.675 401.35C83.675 386.675 59.5 353.45 74.175 388.675C87.6 409.25 91.6 441.125 112.75 454.475V454.45ZM494.6 696.325C475.925 697.55 513.875 675.9 494.6 696.325ZM494.575 702.875C487.075 704.925 494.675 698.2 494.575 702.875ZM458.325 678.025C441.45 684.525 475.75 663.4 458.325 678.025ZM299.1 579.625C310.4 589.625 351.025 587 312.85 580.875C307.175 572.45 276.9 574.5 299.1 579.625ZM183.175 509.75C156.175 498.375 175.625 497.2 183.175 509.75ZM162.825 496.375C140.95 484.2 159.7 484.1 162.825 496.375ZM465.6 686.55C475.75 676.7 466 702.275 482.475 684.15C482.625 671.175 481.95 663.525 463.55 679.275C458.5 682.075 456.25 694.05 465.6 686.55ZM446.525 678.525C440.5 686.025 447.15 669.775 446.525 678.525ZM260.95 566.1C239.35 548.725 305 580.275 260.95 566.1ZM224.7 545.275C235.325 553.175 264.7 567.725 239.825 548.275C248.225 538.525 223.775 533.35 231.9 526.85C211.275 514.225 215.65 515.35 230.1 515.725C205.3 504.675 233.65 505.475 232.275 499.8C222.75 497.925 184.8 482.925 207.15 501.05C184.475 489.5 201.75 505.35 194.9 503.675C171.7 497.375 215.525 521.325 191.225 515.4C204.5 525.925 227.025 542.4 196.85 526.55C192.85 532.275 218.4 540.925 224.725 545.3L224.7 545.275ZM293.15 590.7C312.375 595.7 312.275 587.725 294.875 585.4C285.5 576.65 255.95 567.425 282.375 584.3C284.15 588.725 289.725 588.65 293.125 590.725L293.15 590.7ZM258.475 573.2C258.975 575.375 254.475 569.725 258.475 573.2ZM275.325 241.65C275.95 246 278.25 238.05 275.325 241.65ZM265.25 301.725C258.5 289.85 273.75 249.45 275.425 274.55C268.325 294.075 273.4 305 278.325 278.8C287.475 258.175 276.35 319.5 265.2 301.75L265.25 301.725ZM255.45 317.65C261.075 330.275 253.8 307.65 255.45 317.65ZM261.475 333.575C270.6 346.375 251.65 309.325 261.475 333.575ZM265.575 342.65C266.925 350.2 265.5 337.425 265.575 342.65ZM194.875 303.3C206.75 318.4 201.3 289.75 194.875 303.3ZM169.825 288.375C171.95 293.75 173.85 286.65 169.825 288.375ZM276.9 371.975C280.125 389.25 280.55 342.475 276.9 371.975ZM180.85 315.625C186.125 307.875 166.8 280.625 183.625 305.85C190.875 311.625 204.625 315.525 192.475 317.95C211.525 334.8 187.8 322.5 180.85 315.65V315.625ZM282.4 380.075C283.775 354.15 290.15 364.6 282.45 383.75L282.4 380.075ZM171.2 324.625C184.175 321.875 224.875 347.4 187.45 331.925C183.325 327.3 174.45 329.45 171.2 324.625ZM289.65 406.525C289.95 416.05 293.7 392.1 289.65 406.525ZM237.1 372.825C241.7 377 235.05 347.525 237.1 372.825ZM167.875 336.1C146.1 306.025 231.2 366.5 181.85 343.725C176.7 342.375 170.475 341.85 167.875 336.1ZM288.025 417.55C288.25 425.6 289.7 410.675 288.025 417.55ZM294.275 423.75C297.375 434.675 295.775 407.725 294.275 423.75ZM258.35 402.5C243.675 393.7 254.5 340.525 259.5 376.875C273.775 372.25 258.725 395.625 269.35 395.425C267.7 410.2 262.925 415.525 258.425 402.475L258.35 402.5ZM161.2 346.025C127.275 315.85 203.85 361.825 166.725 351.65L161.2 346.025ZM182.975 366.85C195.475 374.9 172.725 347.575 182.975 366.85ZM172.025 363.325C175.625 369.95 178.8 356.6 172.025 363.325ZM154.225 363.8C142.55 352.25 134.1 341.525 154.75 356.625C162.725 356.925 137.075 332.325 156.625 348.825C177.25 352.575 166.85 382.625 154.225 363.825V363.8ZM188.1 390.025C199.525 409.825 194.85 375.8 188.1 390.025ZM174.025 385.2C181.2 398.1 175.275 366.35 174.025 385.2ZM205.375 406.775C198.825 395.575 194.95 382.1 194.95 367.725C194.95 367.7 194.95 367.675 194.95 367.65C197.325 379.45 220.075 418.475 206.1 383.825C190.675 354.775 224.525 393.25 228.025 400.5C229.575 407.675 218.5 398.525 226.025 415.425C212.275 396.15 217.9 426.075 205.375 406.775ZM306.775 474.425C295.775 449.75 314.575 460.925 309.2 478.475L306.775 474.425ZM247.975 455.55C258.075 463.675 243.125 446.875 247.975 455.55ZM316.45 503.2C321.4 516.45 320.65 487.45 316.45 503.2ZM219.5 450.65C222.875 462.325 226.35 448.775 219.5 450.65ZM341.325 534.75C356 541.125 329.7 512.25 341.325 534.75ZM351.4 548.275C354.75 559.525 351.1 533.65 351.4 548.275ZM467.175 636.25C467.375 640.625 472.95 635.9 467.175 636.25ZM366 571.975C356.75 562.3 354.35 544.175 364.35 559.95C369.475 562 380.75 589.525 366 571.975ZM397.075 659.7C421.225 645.275 413.25 693.5 438.025 663.75C462.45 645.95 416.95 685.825 447.075 666.975C468.825 652.375 501 673.85 521.3 680.875C535.925 680.15 550.125 693.525 565.125 685.4C593.95 677.6 508.7 673.85 531.075 660.1C527.625 660.875 523.65 661.325 519.575 661.325C499.45 661.325 481.85 650.45 472.325 634.275L472.175 634.025C439.7 628.65 412.125 611.025 393.775 586.175L393.55 585.85C387.55 576 402.3 587.225 388.375 571.175C373.225 555.925 360.3 538.4 350.2 519.2L349.625 518.025C335.35 510.4 333.7 487.95 332.225 517.275C332.35 498.75 314.95 486.275 310.725 491.475C310.675 473.625 329.325 482.575 316.225 469.375C313.425 450.875 304.175 431.575 301.375 410.725C297.075 400.675 300.75 379.15 286.6 401.925C281.45 425.975 284.875 372.35 292.9 390.05C303.425 371.925 289.15 374.125 288.525 376.625C295.4 361.375 292.9 339.75 286.75 348C290.4 331.85 292.525 288.575 281.275 296.275C288.075 279.4 294.2 219.025 264.6 242.05C249.1 242.675 234.55 246.025 221.2 251.6L222.025 251.3C252.825 268.275 218.9 257.425 206.4 254.725C204.775 270.4 192.35 263.625 176.85 263.775C201.625 266.825 164.8 289.075 150.575 280.45C132.15 289.25 166.5 311.275 150.95 318.1C152.825 328.35 122.675 314.35 125.025 338.1C107.125 330.575 122.6 366.225 131.55 354.15C162 362.4 152.975 381.2 153.725 399.05C148.8 409.45 129.225 374.6 149.35 376.2C133.5 350.375 131.825 366.825 118.6 378.85C115.475 379.725 152.3 395.95 129.225 403.925C149.525 407.05 150.1 424.85 154.225 436.1C166.4 448.825 163.9 422.05 178.55 437.35C169.3 423.725 129.6 398.975 161.55 406.925C161.4 393.175 155.775 382.15 165.575 382.425C175.25 364.875 155.425 425.75 177.3 403.425C183.325 400.775 184.8 385.825 195.725 404.825C211.5 420.375 201.4 431.625 179.125 417.425C183.1 430.95 208.925 435.775 204.075 456.95C209.225 475.55 216.425 468.7 222.7 467.625C227.625 485.675 230.425 472.4 230.675 463.775C253.175 468.625 247.925 481.9 254.975 491.275C270.5 498.275 232.725 443.725 259.4 474.85C287.45 500.15 269.925 510.775 244.725 506.725C260.65 505.45 265.825 528.275 285.75 527.475C303.925 536.125 316.2 569.35 284.9 555.5C274.025 545.725 235.55 533.625 267 552.25C299.05 565.375 325.375 578.225 350.75 592.525L347 590.6C367 604.9 375.675 621.275 383.25 624.525C366.45 632.55 332.55 618.1 357.725 613.65C342 610.8 324.35 602.875 339.375 622.4C352.175 633.125 384.675 631.95 390.525 633.175C385.55 644.05 377.1 644.925 390.725 645.775C375.55 653.9 395.6 655.15 397 659.775L397.075 659.7ZM307.225 604.475C333.05 607.775 276.45 586.875 301.575 602.6L307.225 604.475ZM376.125 651.25C354.25 646.875 398.55 642.35 376.125 651.25ZM243.65 568.85C220.525 559.125 258.025 567.3 243.65 568.85ZM321.925 618.6C305.425 616.2 323.8 610.625 321.925 618.6ZM436.4 692.725C430.675 695.075 436.1 686.575 436.4 692.725ZM331.25 628.225C329.55 629.1 327.7 624.175 331.25 628.225ZM162.325 520.9C141.275 504.225 159.925 511.625 162.325 520.9ZM226.675 562.525C200.175 554 246.05 561.375 226.675 562.525ZM280.975 601.7C270.475 601.45 278.975 595.725 280.975 601.7ZM425.625 690.925C414.6 699.35 426.5 679.575 425.625 690.925ZM223.5 566.425C215.2 567 222.2 560.175 223.5 566.425ZM368.575 658.9C338.125 654.3 402.325 659.2 368.575 658.9ZM306.925 623.275C342.55 633.375 277 600.775 298.15 619.6L302.825 621.725L306.875 623.275H306.925ZM337.675 647.75C312.225 641.825 343.7 637.45 337.675 647.75ZM236.45 585.95C251 597.125 295.175 587.375 258.75 579.3C242.2 570.45 204.8 564.425 230.25 584.6L236.45 585.95ZM317.175 641.325C295.425 636.225 330.6 636.275 317.175 641.325ZM287 622.8C267.6 617.8 296.375 616.25 287 622.8ZM251.075 601.875C231.825 596.1 249.825 596.65 251.075 601.875ZM373.575 697.3C385.975 705.1 446.05 714.475 408.4 700.525C402.15 701.825 338.725 682.6 373.525 697.3H373.575ZM296.4 649.125C290.9 651.475 295.975 643.95 296.4 649.125ZM280.975 641.425C261.3 641.3 296.2 631.575 280.975 641.425ZM348.675 688.7C329.625 685.35 354.65 679.9 348.675 688.7ZM313.45 669.025C298.325 663.15 323.2 659.65 313.45 669.025ZM292.85 660.425C285.35 665.05 291.175 652.15 292.85 660.425ZM276.4 654.425C266.725 650.675 283.125 651.425 276.4 654.425ZM152.875 545.175C158.4 555.075 153.9 540.625 152.875 545.175ZM240.15 641C270.45 652.225 240.025 619.7 226.1 621.575C219.975 610.925 202.65 604.175 214.85 598.45C192.85 606.075 191.825 569.4 181.425 574.625C158.175 567.275 172.375 541.2 144.675 525.275C142.15 508.4 117.125 493.775 109.125 468.35C105.6 455.35 80.85 417.95 96.075 452.725C112.275 487.375 130.525 517.2 151.6 544.725L150.75 543.55C164.375 573.025 184.4 597.5 209.15 616L209.65 616.35C218.7 625.05 227.4 638.325 240.175 641.025L240.15 641ZM299.625 683.05C327.375 697.325 359.575 708.45 393.45 714.75L395.65 715.1C428.225 722.575 465.625 726.85 504.05 726.85C524 726.85 543.7 725.7 563.05 723.45L560.7 723.675C536.025 712.525 510.475 728.05 485.875 715.7C477.125 716.7 466.975 717.25 456.7 717.25C434.725 717.25 413.35 714.675 392.875 709.8L394.75 710.175C353.975 695.325 320.075 680.025 287.45 662.625L291.925 664.8C252.025 650.25 312.55 683.475 323.325 686.2C348.25 700.35 295.925 678.925 288.525 673.05C267.65 661.325 264.975 663.775 286.475 675.675C290.825 678.175 295.1 680.85 299.6 683.025L299.625 683.05ZM249.175 661.175C218.475 640.05 192.175 615.475 169.9 587.55L169.325 586.825C127.425 535.4 93.3 475.55 70.05 410.55L68.725 406.35C54.8 364.025 49.975 318.625 32.05 277.95C28.425 271.3 26.3 263.375 26.3 254.95C26.3 230.65 44.075 210.475 67.325 206.75L67.6 206.725C81.975 204 107.35 190.425 76.75 200.125C49.325 220.25 46.675 181.85 74.775 179.45C87 179.325 96.875 169.4 96.875 157.15C96.875 153.475 95.975 150 94.4 146.925L94.45 147.05C73.825 133.625 144.425 118.85 108.925 98.825C71.975 58.875 160.7 51.225 138.825 96.525C133.6 131.35 200.8 90.125 185.225 130.35C201.075 149.7 244.575 134.725 243.5 161.875C266.625 163.425 274.525 182.875 296.2 184.375C318.7 194.525 359.375 202.5 367 227.8C344.725 245.475 293.15 191.4 290.675 240.225C291.25 317.1 302.675 391.075 323.475 461.025L322.05 455.4C338.8 497 362.55 532.525 392.15 562.175C419.125 592.225 451.55 616.725 488 634.275L489.85 635.075C518.85 648.775 552.55 659.575 587.8 665.775L590.225 666.125C604.225 655.4 628.975 615.6 650.775 632.375C651.8 651.25 607.4 671.825 648.675 669.75C672.925 662.45 689.725 688.5 709.7 665C728.075 686.775 786.125 651.075 773.025 695.625C755.35 707 729.55 700.125 711.825 715.8C682.625 701.2 659.35 728.85 627 725.35C595.225 731.125 558.65 734.425 521.3 734.425C520.2 734.425 519.075 734.425 517.975 734.425H518.15C454.45 733.3 393.5 723.325 335.9 705.7L340.575 706.925C305.725 695.15 275.5 679.65 248.075 660.425L249.225 661.2L249.175 661.175Z" fill="white"/>
</svg>
